<svg viewBox="105.831 202.855 293.736 66.858" width="293.736" height="66.858"><path fill="#000" d="M105.831 202.855h24.672c5.564 0 9.805 0.426 12.724 1.277 3.922 1.155 7.282 3.208 10.079 6.157 2.797 2.949 4.926 6.56 6.385 10.831 1.459 4.272 2.189 9.54 2.189 15.803 0 5.503 -0.684 10.246 -2.053 14.229 -1.672 4.864 -4.059 8.801 -7.16 11.811 -2.341 2.281 -5.503 4.059 -9.486 5.336 -2.979 0.943 -6.962 1.414 -11.948 1.414h-25.402Zm13.499 11.311v44.282h10.079c3.77 0 6.491 -0.213 8.163 -0.638 2.189 -0.547 4.006 -1.475 5.45 -2.782s2.622 -3.458 3.534 -6.453c0.912 -2.995 1.368 -7.076 1.368 -12.245s-0.456 -9.136 -1.368 -11.903c-0.912 -2.767 -2.189 -4.925 -3.831 -6.476 -1.641 -1.551 -3.724 -2.6 -6.248 -3.147 -1.885 -0.425 -5.579 -0.638 -11.082 -0.638Z"/><path fill="#000" d="m356.47 243.262 9.03 -24.81 9.212 24.81Zm16.327 -40.407h-14.275l-26.04 66.858h14.32l5.518 -15.187h26.725l5.837 15.187h14.685Z"/><path fill="#000" d="M304.214 269.713v-55.547h-19.839v-11.311h53.131v11.311h-19.793v55.547h-13.499Z"/><path fill="#000" d="M235.961 269.713v-66.31h13.499v55.045h33.566v11.265h-47.065Z"/><path fill="#000" d="m173.305 269.713 0.029 -11.261V214.18l-0.029 -11.325h49.574v11.311h-36.074l-13.471 0.014v14.81l13.471 -0.003h33.565v11.265h-33.565l-13.471 -0.043v18.243l13.471 -0.004h37.351v11.265h-50.851Z"/></svg>